<svg xmlns="http://www.w3.org/2000/svg" width="402" height="160" fill="none" viewBox="0 0 402 160">
  <path fill="#fff" d="M0 0h402v160H0z"/>
  <path stroke="#000" d="M1 34h400M1 44h400M1 54h400M1 64h400M1 74h400M1 104h400M1 114h400M1 124h400M1 134h400M1 144h400M1 34v110M401 34v110"/>
  <path fill="#000" d="m16 47.3 1 5.8c.2.7.2.7 1.2.7 5.9 0 9.6 4.6 9.6 9.7a10 10 0 0 1-6.7 9.5c-.5.2-.6.2-.5.7.4 2.5 1.2 6.3 1.2 8.5 0 6.8-5.2 8-7.9 8-6.1 0-7.6-3.9-7.6-6.5 0-2.5 1.6-4.6 4.3-4.6 2.4 0 3.8 1.9 3.8 4.1 0 2.3-1.4 3.4-2.7 3.8-.9.2-1.3.4-1.3.6 0 .6 1.1 1.2 3.2 1.2 2.4 0 6.4-.7 6.4-6.6 0-1.9-.6-5.4-1.1-8.1-.1-.5-.1-.4-.6-.3l-2.7.2C5.8 74 1 67.4 1 60.4c0-8 6.1-13.8 11.9-18.5.5-.4.4-.5.3-1-.2-1.6-.5-4.2-.5-6.5 0-4.2.9-9.2 3.9-12.5.8-.9 2-1.9 2.6-1.9.4 0 1.5 1.1 2.1 2 1.6 2.4 2.6 5.8 2.6 9.3 0 6.1-3.3 11.2-7.6 15.3-.3.2-.3.2-.3.7Zm3.8-21.1c-2.4 0-5.3 3.8-5.3 10.1l.2 3.7c.1.5.3.5.5.3 3.2-2.8 7-6.4 7-10.8 0-2.2-1.1-3.3-2.4-3.3Zm-4.4 27.2-.8-5.1c-.1-.4-.2-.5-.6-.1-1.8 1.5-3.7 3-6.1 5.6-3.3 3.8-3.7 7-3.7 9.3 0 5.6 4.5 9.5 11.5 9.5l2.3-.2c.6-.2.6-.2.5-.6l-2-11.9c-.1-.5-.1-.5-.8-.3-2.4.6-4 2.4-4 4.6 0 1.9 1.2 3.6 2.9 4.3.3.1.6.3.6.5 0 .3-.2.5-.5.5l-1.1-.3c-2.7-.9-4.6-3.4-4.6-7 0-3.4 2.3-6.6 5.8-7.8.8-.2.8-.2.6-1Zm2.8 6.4 2 11.4c0 .5.1.5.6.2 2.2-1.1 3.8-3.1 3.8-5.6 0-3.6-2.7-6.3-6-6.6-.4 0-.5.1-.4.6ZM11.1 104c6.8 0 11 4.6 11 11.4 0 12-10.2 19-19.9 23.7l-.7.2c-.3 0-.5-.2-.5-.5s.2-.5.6-.7c9.2-5.2 14.6-11.4 14.6-22.3 0-6.2-1.8-10.3-6-10.3-4 0-6.4 2.9-6.4 4.4 0 .4.1.8.7.8.5 0 .9-.3 1.9-.3 2 0 3.8 1.5 3.8 4.1 0 2.4-1.7 4.1-4.2 4.1-3.2 0-4.8-2.7-4.8-5.8 0-3.8 3.1-8.8 9.9-8.8Zm14.8 3.2c1.3 0 2.2 1 2.2 2.2 0 1.2-.9 2.2-2.2 2.2-1.2 0-2.1-1-2.1-2.2 0-1.2.9-2.2 2.1-2.2Zm.1 9.9a2 2 0 0 1 2.1 2.1c0 1.2-.9 2.2-2.1 2.2-1.2 0-2.1-1-2.1-2.2a2 2 0 0 1 2.1-2.1Zm16.5-48.6c-1.9 0-3.5-1.1-3.5-3 0-3.1 3.2-6 7.1-6 2 0 3.5 1.2 3.5 3 0 3-4 6-7.1 6Z"/>
  <path stroke="#000" d="M49 64V36"/>
  <path fill="#000" d="M70.5 78.5c-2 0-3.5-1.1-3.5-3 0-1.8 1.7-6 7-6 2.1 0 3.6 1.2 3.6 3 0 1.2-1.2 6-7.1 6Zm-.8-1.4c1.8 0 6.8-3.1 6.8-4.7l-.2-.6c-.3-.5-.7-.8-1.4-.8-1.7 0-6.8 2.9-6.8 4.6l.2.7c.2.4.7.8 1.4.8Z"/>
  <path stroke="#000" d="M77 74V46"/>
  <path fill="#000" d="M102.7 84.5c3.4 0 7.4 1.9 7.4 4.5 0 2.4-1.9 4.5-7.7 4.5-5.3 0-7.4-2.2-7.4-4.5 0-2.5 3-4.5 7.7-4.5Zm-.9.8c-1.7 0-3 .5-3 2.4 0 2.2 2.3 5 4.7 5 1.6 0 2.8-.8 2.8-2.6 0-2.1-2-4.8-4.5-4.8Z"/>
  <path stroke="#000" d="M93 89h19"/>
  <path fill="#000" d="M126.5 108.5c-2 0-3.5-1.1-3.5-3 0-1.8 1.7-6 7-6 2.1 0 3.6 1.2 3.6 3 0 1.2-1.2 6-7.1 6Zm-.8-1.4c1.8 0 6.8-3.1 6.8-4.7l-.2-.6c-.3-.5-.7-.8-1.4-.8-1.7 0-6.8 2.9-6.8 4.6l.2.7c.2.4.7.8 1.4.8Z"/>
  <path stroke="#000" d="M123 104v28"/>
  <path fill="#000" d="M154.5 118.5c-2 0-3.5-1.1-3.5-3 0-1.8 1.7-6 7-6 2.1 0 3.6 1.2 3.6 3 0 1.2-1.2 6-7.1 6Zm-.8-1.4c1.8 0 6.8-3.1 6.8-4.7l-.2-.6c-.3-.5-.7-.8-1.4-.8-1.7 0-6.8 2.9-6.8 4.6l.2.7c.2.4.7.8 1.4.8Z"/>
  <path stroke="#000" d="M151 114v28"/>
  <path fill="#000" d="M186.7 104.5c3.4 0 7.4 1.9 7.4 4.5 0 2.4-1.9 4.5-7.7 4.5-5.3 0-7.4-2.2-7.4-4.5 0-2.5 3-4.5 7.7-4.5Zm-.9.8c-1.7 0-3 .5-3 2.4 0 2.2 2.3 5 4.7 5 1.6 0 2.8-.8 2.8-2.6 0-2.1-2-4.8-4.5-4.8Zm.9-20.8c3.4 0 7.4 1.9 7.4 4.5 0 2.4-1.9 4.5-7.7 4.5-5.3 0-7.4-2.2-7.4-4.5 0-2.5 3-4.5 7.7-4.5Zm-.9.8c-1.7 0-3 .5-3 2.4 0 2.2 2.3 5 4.7 5 1.6 0 2.8-.8 2.8-2.6 0-2.1-2-4.8-4.5-4.8Z"/>
  <path stroke="#000" d="M177 89h19"/>
  <path fill="#000" d="M186.7 69.5c3.4 0 7.4 1.9 7.4 4.5 0 2.4-1.9 4.5-7.7 4.5-5.3 0-7.4-2.2-7.4-4.5 0-2.5 3-4.5 7.7-4.5Zm-.9.8c-1.7 0-3 .5-3 2.4 0 2.2 2.3 5 4.7 5 1.6 0 2.8-.8 2.8-2.6 0-2.1-2-4.8-4.5-4.8Z"/>
</svg>
