<svg xmlns="http://www.w3.org/2000/svg" width="482" height="110" fill="none" viewBox="0 0 482 110">
  <path fill="#fff" d="M0 0h482v109.2H0z"/>
  <path stroke="#000" stroke-width="1.2" d="M1 40.8h480M1 52.8h480M1 64.8h480M1 76.8h480M1 88.8h480M1 40.8v48m480-48v48"/>
  <path fill="#000" d="m19 56.8 1.2 7c.2.8.2.8 1.4.8 7.1 0 11.6 5.5 11.6 11.6a12 12 0 0 1-8 11.4c-.7.2-.8.2-.7.8.5 3 1.5 7.6 1.5 10.2 0 8.2-6.3 9.6-9.5 9.6-7.3 0-9.1-4.6-9.1-7.8 0-3 1.9-5.5 5.1-5.5 2.9 0 4.6 2.3 4.6 5s-1.7 4-3.3 4.5c-1 .2-1.5.5-1.5.7 0 .7 1.3 1.5 3.8 1.5 2.9 0 7.7-.9 7.7-8 0-2.2-.7-6.4-1.3-9.7-.1-.6-.1-.5-.7-.3l-3.3.2C6.8 88.8 1 80.8 1 72.5c0-9.6 7.3-16.6 14.3-22.2.6-.5.5-.6.3-1.2-.2-2-.6-5-.6-7.8 0-5 1.1-11 4.7-15 1-1.1 2.4-2.3 3.1-2.3.5 0 1.8 1.3 2.6 2.4 1.9 2.9 3 7 3 11.2 0 7.3-3.9 13.4-9 18.3-.4.3-.4.3-.4.9Zm4.6-25.4c-3 0-6.4 4.6-6.4 12.2l.2 4.4c.2.6.4.6.6.4 3.9-3.4 8.4-7.7 8.4-13 0-2.6-1.3-4-2.8-4Zm-5.3 32.7-1-6.1c-.1-.5-.2-.6-.7-.2-2.2 1.8-4.4 3.6-7.3 6.8a16 16 0 0 0-4.5 11.1c0 6.7 5.4 11.4 13.8 11.4l2.8-.2c.7-.3.7-.3.6-.7l-2.4-14.3c-.1-.6-.1-.6-1-.4-2.8.7-4.8 2.9-4.8 5.5 0 2.3 1.5 4.4 3.5 5.2.4.1.7.4.7.6 0 .4-.2.6-.6.6l-1.3-.4c-3.2-1-5.5-4-5.5-8.4 0-4 2.8-7.9 7-9.3 1-.3 1-.3.7-1.2Zm3.3 7.7L24 85.4c0 .6.2.6.8.3 2.6-1.3 4.5-3.7 4.5-6.7 0-4.4-3.2-7.6-7.2-8-.5 0-.6.2-.5.8Zm47 34.4c-2.3 0-4.2-1.3-4.2-3.6 0-3.7 3.8-7.2 8.5-7.2 2.4 0 4.2 1.4 4.2 3.6 0 3.6-4.8 7.2-8.5 7.2Z"/>
  <path stroke="#000" stroke-width="1.2" d="M76.4 100.8V67.2M62 100.8h17.4"/>
  <path fill="#000" d="M116.4 100.2c-2.2 0-4.2-1.3-4.2-3.6 0-3.7 3.9-7.2 8.6-7.2 2.4 0 4.2 1.4 4.2 3.6 0 3.6-4.8 7.2-8.6 7.2Z"/>
  <path stroke="#000" stroke-width="1.2" d="M124.2 94.8V61.2"/>
  <path fill="#000" d="M169.2 94.2c-2.2 0-4.2-1.3-4.2-3.6 0-3.7 3.9-7.2 8.6-7.2 2.4 0 4.2 1.4 4.2 3.6 0 3.6-4.8 7.2-8.6 7.2Z"/>
  <path stroke="#000" stroke-width="1.2" d="M177 88.8V55.2"/>
  <path fill="#000" d="M156 95.5c-.4-.3-.6-22.4-.6-22.4 0-.7.6-1.1 1.2-1.1.4 0 .8.2.8.6l-.3 11c0 .3.1.5.4.6h.2l.9-.4c.6-.4 1.4-.8 2.1-.8 1.8.2 3.5 1.6 3.5 3.8 0 1.8-1.2 4.2-4.7 6.6-1 .6-1.9 1.6-3 2.2l-.2.2c-.1 0-.3 0-.4-.3Zm1.2-3.3s.2.6.5.6l.4-.2c1.7-1 3.5-3.2 3.5-5.2 0-1-.5-2.3-1.7-2.3-.9 0-2.4 1.2-2.7 1.9v5.2Zm55.2-4c-2.2 0-4.2-1.3-4.2-3.6 0-3.7 3.9-7.2 8.6-7.2 2.4 0 4.2 1.4 4.2 3.6 0 3.6-4.8 7.2-8.6 7.2Z"/>
  <path stroke="#000" stroke-width="1.2" d="M220.2 82.8V49.2"/>
  <path fill="#000" d="M260.4 82.2c-2.2 0-4.2-1.3-4.2-3.6 0-3.7 3.9-7.2 8.6-7.2 2.4 0 4.2 1.4 4.2 3.6 0 3.6-4.8 7.2-8.6 7.2Z"/>
  <path stroke="#000" stroke-width="1.2" d="M268.2 76.8V43.2"/>
  <path fill="#000" d="M313.2 76.2c-2.2 0-4.2-1.3-4.2-3.6 0-3.7 3.9-7.2 8.6-7.2 2.4 0 4.2 1.4 4.2 3.6 0 3.6-4.8 7.2-8.6 7.2Z"/>
  <path stroke="#000" stroke-width="1.2" d="M321 70.8V37.2"/>
  <path fill="#000" d="M300 77.5c-.4-.3-.6-22.4-.6-22.4 0-.7.6-1.1 1.2-1.1.4 0 .8.2.8.6l-.3 11c0 .3.1.5.4.6h.2l.9-.4c.6-.4 1.4-.8 2.1-.8 1.8.2 3.5 1.6 3.5 3.8 0 1.8-1.2 4.2-4.7 6.6-1 .6-1.9 1.6-3 2.2l-.2.2c-.1 0-.3 0-.4-.3Zm1.2-3.3s.2.6.5.6l.4-.2c1.7-1 3.5-3.2 3.5-5.2 0-1-.5-2.3-1.7-2.3-.9 0-2.4 1.2-2.7 1.9v5.2Zm60-4c-2.2 0-4.2-1.3-4.2-3.6 0-3.7 3.9-7.2 8.6-7.2 2.4 0 4.2 1.4 4.2 3.6 0 3.6-4.8 7.2-8.6 7.2Z"/>
  <path stroke="#000" stroke-width="1.2" d="M357 64.8v33.6"/>
  <path fill="#000" d="M348 71.5c-.4-.3-.6-22.4-.6-22.4 0-.7.6-1.1 1.2-1.1.4 0 .8.2.8.6l-.3 11c0 .3.1.5.4.6h.2l.9-.4c.6-.4 1.4-.8 2.1-.8 1.8.2 3.5 1.6 3.5 3.8 0 1.8-1.2 4.2-4.7 6.6-1 .6-1.9 1.6-3 2.2l-.2.2c-.1 0-.3 0-.4-.3Zm1.2-3.3s.2.6.5.6l.4-.2c1.7-1 3.5-3.2 3.5-5.2 0-1-.5-2.3-1.7-2.3-.9 0-2.4 1.2-2.7 1.9v5.2Zm55.2-4c-2.2 0-4.2-1.3-4.2-3.6 0-3.7 3.9-7.2 8.6-7.2 2.4 0 4.2 1.4 4.2 3.6 0 3.6-4.8 7.2-8.6 7.2Z"/>
  <path stroke="#000" stroke-width="1.2" d="M400.2 58.8v33.6"/>
  <path fill="#000" d="M454.8 95.4c4.1 0 9 2.3 9 5.4 0 2.9-2.4 5.4-9.3 5.4-6.4 0-8.9-2.6-8.9-5.4 0-3 3.6-5.4 9.2-5.4Zm-1 1c-2 0-3.6.6-3.6 2.8 0 2.7 2.7 6 5.6 6 2 0 3.4-1 3.4-3 0-2.6-2.4-5.8-5.4-5.8Z"/>
  <path stroke="#000" stroke-width="1.2" d="M443.2 100.8H466"/>
  <path fill="#000" d="M454.8 83.4c4.1 0 9 2.3 9 5.4 0 2.9-2.4 5.4-9.3 5.4-6.4 0-8.9-2.6-8.9-5.4 0-3 3.6-5.4 9.2-5.4Zm-1 1c-2 0-3.6.6-3.6 2.8 0 2.7 2.7 6 5.6 6 2 0 3.4-1 3.4-3 0-2.6-2.4-5.8-5.4-5.8Zm1-13c4.1 0 9 2.3 9 5.4 0 2.9-2.4 5.4-9.3 5.4-6.4 0-8.9-2.6-8.9-5.4 0-3 3.6-5.4 9.2-5.4Zm-1 1c-2 0-3.6.6-3.6 2.8 0 2.7 2.7 6 5.6 6 2 0 3.4-1 3.4-3 0-2.6-2.4-5.8-5.4-5.8Z"/>
</svg>
