<svg xmlns="http://www.w3.org/2000/svg" width="402" height="60" fill="none" viewBox="0 0 402 60">
  <path fill="#fff" d="M0 0h402v60H0z" />
  <path fill="#000"
    d="M6.3 11h6.6S8 18.6 3 23.4h6.1v-3.8l4.7-5v8.9H16v1.9h-2.2v2.7c0 .9 1.3.9 1.3.9h.9v1H7.1v-1h1s1 0 1-1v-2.6H1v-2S6.4 17.7 6.3 11Zm0 19h6.6S8 37.6 3 42.4h6.1v-3.8l4.7-5v8.9H16v1.9h-2.2v2.7c0 .9 1.3.9 1.3.9h.9v1H7.1v-1h1s1 0 1-1v-2.6H1v-2S6.4 36.7 6.3 30Z" />
  <path stroke="#000" d="M1 30h399M213.5 15v30" />
  <path fill="#000" d="M42.5 34.5c-1.9 0-3.5-1.1-3.5-3 0-3.1 3.2-6 7.1-6 2 0 3.5 1.2 3.5 3 0 3-4 6-7.1 6Z" />
  <path stroke="#000" d="M49 30V2" />
  <path fill="#000" d="M86.5 34.5c-1.9 0-3.5-1.1-3.5-3 0-3.1 3.2-6 7.1-6 2 0 3.5 1.2 3.5 3 0 3-4 6-7.1 6Z" />
  <path stroke="#000" d="M93 30V2" />
  <path fill="#000"
    d="M127 25h10.4v5.3H127V25Zm103.5 9.5c-1.9 0-3.5-1.1-3.5-3 0-3.1 3.2-6 7.1-6 2 0 3.5 1.2 3.5 3 0 3-4 6-7.1 6Z" />
  <path stroke="#000" d="M237 30V2" />
  <path fill="#000" d="M252.5 34.5c-1.9 0-3.5-1.1-3.5-3 0-3.1 3.2-6 7.1-6 2 0 3.5 1.2 3.5 3 0 3-4 6-7.1 6Z" />
  <path stroke="#000" d="M259 30V2" />
  <path fill="#000" d="M274.5 34.5c-1.9 0-3.5-1.1-3.5-3 0-3.1 3.2-6 7.1-6 2 0 3.5 1.2 3.5 3 0 3-4 6-7.1 6Z" />
  <path stroke="#000" d="M281 30V2" />
  <path fill="#000" d="M296.5 34.5c-1.9 0-3.5-1.1-3.5-3 0-3.1 3.2-6 7.1-6 2 0 3.5 1.2 3.5 3 0 3-4 6-7.1 6Z" />
  <path stroke="#000" d="M303 30V2" />
  <path fill="#000"
    d="M303 2h-66v4h66V2Zm15.5 32.5c-1.9 0-3.5-1.1-3.5-3 0-3.1 3.2-6 7.1-6 2 0 3.5 1.2 3.5 3 0 3-4 6-7.1 6Z" />
  <path stroke="#000" d="M325 30V2" />
  <path fill="#000" d="M362.5 34.5c-1.9 0-3.5-1.1-3.5-3 0-3.1 3.2-6 7.1-6 2 0 3.5 1.2 3.5 3 0 3-4 6-7.1 6Z" />
  <path stroke="#000" d="M369 30V2" />
  <path fill="rgba(36,255,116,0.363)" d="M61 0H39v60h22V0Z" />
</svg>