<svg xmlns="http://www.w3.org/2000/svg" width="168" height="168" fill="none" viewBox="0 0 168 168">
  <path fill="#fff" d="M0 0h168v168H0z" />
  <path fill="#203D57" fill-rule="evenodd"
    d="m29.6 31.5 30 86.7h1.6l25.2-72.8s-4.7 4-15.7 4c-5 0-9-3-9-11 0-3 2-10.4 9.5-10.4 5.5 0 6.7 2.5 8.5 5.5 1.8 3 1 8 1 8 7.6-2 21.1-17 21.1-17h1l-2 7h21c13.6 0 32.7 12.4 32.7 25.4l-15 4c-4.5-8.1-8.6-14-17.6-15-10.6-1.5-18.6 2-18.6 2s-10 3.5-10.5 11c-.9 13 12 17.2 19 19 12.6 2.9 44.7 6.4 44.7 31.8a30.2 30.2 0 0 1-20.6 29.4c-33.6 11.5-54.2-1.5-60.7-15.4L69.1 140H51.6L11.5 31.5h18Zm69.7 59.3a39.6 39.6 0 0 1-10.2-4.5l-10 26.9 9.2-2s3 16 21 17.4c18.1 1.5 29.6-8 29.6-16.4 0-16-32-19-39.6-21.4Z"
    clip-rule="evenodd" />
</svg>